<svg id="Layer_1" data-name="Layer 1" xmlns="http://www.w3.org/2000/svg" viewBox="0 0 57.57 57.39" fill="#777"><title>icon</title><rect x="31.22" width="26.35" height="26.35" rx="2.45" ry="2.45"/><rect y="31.04" width="26.35" height="26.35" rx="2.45" ry="2.45"/><path d="M55.12,31H33.66a2.45,2.45,0,0,0-2.45,2.45V54.94a2.45,2.45,0,0,0,2.45,2.45H55.12a2.45,2.45,0,0,0,2.45-2.45V33.49A2.45,2.45,0,0,0,55.12,31ZM51.25,49.8A1.27,1.27,0,0,1,50,51.07H38.81a1.27,1.27,0,0,1-1.27-1.27V38.63a1.27,1.27,0,0,1,1.27-1.27H50a1.27,1.27,0,0,1,1.27,1.27Z"/><path d="M23.9,0H2.45A2.45,2.45,0,0,0,0,2.45V23.9a2.45,2.45,0,0,0,2.45,2.45H23.9a2.45,2.45,0,0,0,2.45-2.45V2.45A2.45,2.45,0,0,0,23.9,0ZM20.07,18.63a1.27,1.27,0,0,1-1.27,1.27H7.72a1.27,1.27,0,0,1-1.27-1.27V7.54A1.27,1.27,0,0,1,7.72,6.28H18.81a1.27,1.27,0,0,1,1.27,1.27Z"/></svg>