<svg id="Layer_1" data-name="Layer 1" xmlns="http://www.w3.org/2000/svg" viewBox="0 0 56.71 56.23" fill="#777"><title>icon</title><path d="M1.68,16.17l24.09,11a3.39,3.39,0,0,0,2.69,0L54.23,16.3a2.65,2.65,0,0,0,0-5L28.47.27a3.39,3.39,0,0,0-2.71,0l-24.08,11A2.64,2.64,0,0,0,1.68,16.17Z"/><path d="M55,45.09,29.17,56a3.38,3.38,0,0,1-2.69,0L2.4,45a2.64,2.64,0,0,1,0-4.92,2.32,2.32,0,0,1,2.07-.25l22,10a3.37,3.37,0,0,0,2.69,0s22.78-9.63,23.7-10a2.87,2.87,0,0,1,2.07.25A2.64,2.64,0,0,1,55,45.09Z"/><path d="M55,31,29.17,41.86a3.38,3.38,0,0,1-2.69,0L2.4,30.86a2.64,2.64,0,0,1,0-4.92,2.32,2.32,0,0,1,2.07-.25l22,10a3.37,3.37,0,0,0,2.69,0s22.78-9.63,23.7-10A2.87,2.87,0,0,1,55,26,2.64,2.64,0,0,1,55,31Z"/></svg>